<?xml version="1.0" encoding="utf-8"?>
<!-- Generator: Adobe Illustrator 16.0.0, SVG Export Plug-In . SVG Version: 6.00 Build 0)  -->
<!DOCTYPE svg PUBLIC "-//W3C//DTD SVG 1.1//EN" "http://www.w3.org/Graphics/SVG/1.1/DTD/svg11.dtd">
<svg version="1.1" id="Layer_1" xmlns="http://www.w3.org/2000/svg" xmlns:xlink="http://www.w3.org/1999/xlink" x="0px" y="0px"
	 width="150px" height="30px" viewBox="0 0 150 30" enable-background="new 0 0 150 30" xml:space="preserve">
<g>
	<defs>
		<path id="SVGID_1_" d="M67.971,6.428h7.951c2.615,0,4.844,1.281,4.84,3.871c-0.002,2.164-0.783,3.004-2.395,3.957
			c0.135,0.113,1.059,0.391,1.369,0.543c0.496,0.242,0.791,0.488,1.115,0.82c0.914,0.93,1.086,1.777,1.086,3.234
			c0,3.379-3.271,5.078-6.416,5.078h-7.584L67.971,6.428L67.971,6.428z M72.295,11.025v2.273c2.047,0,3.969,0.27,3.969-1.951
			c0-2.053-2.174-1.717-3.973-1.717L72.295,11.025L72.295,11.025z M72.293,20.709c2.242,0,5.014,0.371,5.063-2.176
			c0.051-2.656-2.848-2.18-5.061-2.18L72.293,20.709L72.293,20.709z"/>
	</defs>
	<clipPath id="SVGID_2_">
		<use xlink:href="#SVGID_1_"  overflow="visible"/>
	</clipPath>
	<linearGradient id="SVGID_3_" gradientUnits="userSpaceOnUse" x1="75.6553" y1="4.7402" x2="75.6553" y2="27.1587">
		<stop  offset="0" style="stop-color:#F8F8F8"/>
		<stop  offset="1" style="stop-color:#D3D3D5"/>
	</linearGradient>
	<rect x="62.872" y="4.74" clip-path="url(#SVGID_2_)" fill="url(#SVGID_3_)" width="25.566" height="22.418"/>
</g>
<g>
	<defs>
		<path id="SVGID_4_" d="M116.011,8.313c-0.816,0.359-1.689,0.605-2.609,0.715c0.936-0.563,1.66-1.453,1.998-2.516
			c-0.877,0.521-1.852,0.898-2.887,1.105c-0.828-0.887-2.008-1.438-3.314-1.438c-2.512,0-4.545,2.035-4.545,4.545
			c0,0.357,0.039,0.701,0.119,1.037c-3.781-0.191-7.125-2-9.367-4.75c-0.391,0.672-0.615,1.453-0.615,2.285
			c0,1.576,0.803,2.969,2.018,3.781c-0.74-0.023-1.441-0.227-2.055-0.566c0,0.02,0,0.035,0,0.055c0,2.203,1.566,4.039,3.645,4.457
			c-0.381,0.105-0.781,0.16-1.197,0.16c-0.293,0-0.576-0.031-0.854-0.082c0.578,1.805,2.254,3.122,4.244,3.157
			c-1.555,1.219-3.516,1.945-5.646,1.945c-0.365,0-0.725-0.023-1.08-0.066c2.01,1.291,4.398,2.043,6.967,2.043
			c8.355,0,12.926-6.924,12.926-12.93c0-0.195-0.006-0.391-0.012-0.586C114.632,10.023,115.403,9.223,116.011,8.313L116.011,8.313z"
			/>
	</defs>
	<clipPath id="SVGID_5_">
		<use xlink:href="#SVGID_4_"  overflow="visible"/>
	</clipPath>
	<linearGradient id="SVGID_6_" gradientUnits="userSpaceOnUse" x1="104.6885" y1="4.2266" x2="104.6885" y2="26.645">
		<stop  offset="0" style="stop-color:#F8F8F8"/>
		<stop  offset="1" style="stop-color:#D3D3D5"/>
	</linearGradient>
	<rect x="91.905" y="4.227" clip-path="url(#SVGID_5_)" fill="url(#SVGID_6_)" width="25.566" height="22.418"/>
</g>
<linearGradient id="SVGID_7_" gradientUnits="userSpaceOnUse" x1="44.9375" y1="2.0107" x2="44.9375" y2="26.0107">
	<stop  offset="0" style="stop-color:#F8F8F8"/>
	<stop  offset="1" style="stop-color:#D3D3D5"/>
</linearGradient>
<path fill="url(#SVGID_7_)" d="M56.938,24.011c0,1.105-0.895,2-2,2h-20c-1.105,0-2-0.895-2-2v-20c0-1.105,0.895-2,2-2h20
	c1.105,0,2,0.895,2,2V24.011z"/>
<path fill="#3B5998" d="M42.344,13.749H44.6v-1.023v-1.002v-0.168c0-0.965,0.023-2.455,0.727-3.381
	c0.738-0.977,1.754-1.641,3.502-1.641c2.844,0,4.043,0.406,4.043,0.406l-0.566,3.342c0,0-0.938-0.271-1.816-0.271
	c-0.877,0-1.66,0.313-1.66,1.189v0.355v1.17v1.023h3.594l-0.25,3.262h-3.344v11.338H44.6V17.011h-2.256V13.749L42.344,13.749z"/>
<g>
	<defs>
		<polygon id="SVGID_8_" points="29.14,7.992 24.329,7.992 24.329,3.18 23.13,3.18 23.13,7.992 18.323,7.992 18.323,9.191 
			23.13,9.191 23.13,14.004 24.329,14.004 24.329,9.191 29.14,9.191 29.14,7.992 		"/>
	</defs>
	<clipPath id="SVGID_9_">
		<use xlink:href="#SVGID_8_"  overflow="visible"/>
	</clipPath>
	<linearGradient id="SVGID_10_" gradientUnits="userSpaceOnUse" x1="14.5386" y1="2.8477" x2="14.5386" y2="27.5117">
		<stop  offset="0" style="stop-color:#F8F8F8"/>
		<stop  offset="1" style="stop-color:#D3D3D5"/>
	</linearGradient>
	<rect x="-0.063" y="2.848" clip-path="url(#SVGID_9_)" fill="url(#SVGID_10_)" width="29.202" height="24.664"/>
</g>
<g>
	<defs>
		<path id="SVGID_11_" d="M13.052,16.996c-0.674-0.475-1.959-1.633-1.959-2.313c0-0.797,0.227-1.188,1.426-2.125
			c1.232-0.961,2.104-2.313,2.104-3.883c0-1.867-0.838-3.691-2.398-4.293h2.355l1.66-1.203c0,0-5.572,0-7.43,0
			c-3.328,0-6.469,2.527-6.469,5.449c0,2.988,2.273,5.398,5.666,5.398c0.236,0,0.463,0,0.686-0.02
			c-0.219,0.422-0.375,0.898-0.375,1.391c0,0.83,0.445,1.5,1.008,2.051c-0.422,0-0.838,0.012-1.287,0.012
			c-4.127,0-7.303,2.629-7.303,5.355c0,2.684,3.48,4.363,7.609,4.363c4.707,0,7.307-2.668,7.307-5.354
			C15.651,19.676,15.017,18.387,13.052,16.996L13.052,16.996z M9.081,13.273L9.081,13.273c-1.914-0.059-3.738-2.141-4.068-4.66
			C4.685,6.102,5.972,4.176,7.882,4.232c1.914,0.057,3.738,2.076,4.068,4.592C12.278,11.336,10.991,13.328,9.081,13.273
			L9.081,13.273z M8.331,25.992L8.331,25.992c-2.85,0-4.912-1.805-4.912-3.973c0-2.125,2.555-3.895,5.408-3.867
			c0.662,0.008,1.287,0.117,1.848,0.297c1.549,1.078,2.658,1.686,2.971,2.914c0.063,0.248,0.09,0.504,0.09,0.766
			C13.735,24.299,12.343,25.992,8.331,25.992L8.331,25.992z"/>
	</defs>
	<clipPath id="SVGID_12_">
		<use xlink:href="#SVGID_11_"  overflow="visible"/>
	</clipPath>
	<linearGradient id="SVGID_13_" gradientUnits="userSpaceOnUse" x1="14.5386" y1="2.8477" x2="14.5386" y2="27.5117">
		<stop  offset="0" style="stop-color:#F8F8F8"/>
		<stop  offset="1" style="stop-color:#D3D3D5"/>
	</linearGradient>
	<rect x="-0.063" y="2.848" clip-path="url(#SVGID_12_)" fill="url(#SVGID_13_)" width="29.202" height="24.664"/>
</g>
<g>
	<defs>
		<path id="SVGID_14_" d="M142.002,15.887c-0.344-0.688-1.293-1.26-2.559-0.266c-1.703,1.344-4.445,1.344-4.445,1.344
			s-2.738,0-4.441-1.344c-1.266-0.994-2.215-0.422-2.559,0.266c-0.602,1.203,0.078,1.783,1.602,2.762
			c1.301,0.836,3.094,1.148,4.242,1.266l-0.961,0.963c-1.359,1.357-2.672,2.67-3.582,3.58c-0.543,0.543-0.543,1.426,0,1.971
			l0.168,0.164c0.273,0.271,0.625,0.408,0.98,0.408h0.008c0.355,0,0.711-0.137,0.98-0.408l3.578-3.58
			c1.359,1.357,2.672,2.668,3.582,3.58c0.543,0.541,1.426,0.541,1.969,0l0.168-0.164c0.539-0.545,0.539-1.428,0-1.971l-3.586-3.58
			l-0.961-0.967c1.152-0.119,2.926-0.432,4.219-1.262C141.924,17.67,142.6,17.09,142.002,15.887L142.002,15.887z M134.998,6.086
			c1.652,0,2.992,1.336,2.992,2.988c0,1.65-1.34,2.988-2.992,2.988c-1.648,0-2.984-1.338-2.984-2.988
			C132.014,7.422,133.35,6.086,134.998,6.086L134.998,6.086z M134.998,15.146c3.359,0,6.078-2.721,6.078-6.072
			c0-3.355-2.719-6.074-6.078-6.074c-3.355,0-6.074,2.719-6.074,6.074C128.924,12.426,131.643,15.146,134.998,15.146L134.998,15.146
			z"/>
	</defs>
	<clipPath id="SVGID_15_">
		<use xlink:href="#SVGID_14_"  overflow="visible"/>
	</clipPath>
	<linearGradient id="SVGID_16_" gradientUnits="userSpaceOnUse" x1="135.502" y1="2.167" x2="135.502" y2="30">
		<stop  offset="0" style="stop-color:#F8F8F8"/>
		<stop  offset="1" style="stop-color:#DCDCDD"/>
	</linearGradient>
	<rect x="122.719" y="2.167" clip-path="url(#SVGID_15_)" fill="url(#SVGID_16_)" width="25.566" height="27.833"/>
</g>
</svg>
